<svg version="1.2" xmlns="http://www.w3.org/2000/svg" viewBox="0 0 1280 1280" width="1280" height="1280">
	<defs>
		<linearGradient id="gradient" x1="0.21" y1="0.91" x2="0.79" y2="0.09">
			<stop offset="0%" stop-color="#ff9019"/>
			<stop offset="16.33%" stop-color="#ff7400"/>
			<stop offset="49%" stop-color="#ff0039"/>
			<stop offset="66%" stop-color="#fa0096"/>
			<stop offset="100%" stop-color="#ea00fb"/>
		</linearGradient>
	</defs>
	<g id="nette">
		<path id="bg" style="fill: #ffffff" fill-rule="evenodd" d="m171.85 0h936.3c94.91 0 171.85 76.94 171.85 171.85v936.3c0 94.91-76.94 171.85-171.85 171.85h-936.3c-94.91 0-171.85-76.94-171.85-171.85v-936.3c0-94.91 76.94-171.85 171.85-171.85z"/>
		<path id="n" style="fill: url(#gradient)" d="m1139.83 709.42q-18.31 12.21-48.82 31.53-30.52 19.33-64.09 37.63-34.58 18.31-68.14 30.52-33.57 13.22-57.98 13.22-12.21 0-21.36-4.07-10.18-4.05-10.17-17.29-0.01-21.35 18.46-63.06 18.46-41.7 41.04-93.58 21.55-50.85 40.02-105.79 18.46-53.89 18.47-101.71 0-33.56-12.21-59-13.23-24.4-33.57-41.7-21.36-16.26-48.82-24.41-27.47-8.13-55.94-8.14-49.85 0-100.7 18.31-51.88 19.34-98.67 47.81-47.82 28.49-88.49 61.03-41.71 33.57-72.22 62.04 17.28-51.87 37.64-101.71 19.31-49.83 39.67-99.68l-289.89 47.8q-27.47 57.98-49.84 111.89-22.39 54.93-38.65 107.82-16.28 52.89-25.43 104.76-9.16 51.89-9.16 104.77 0 55.95 8.14 109.85 7.11 53.93 21.36 110.87l252.26-39.67q-6.11-58.98-6.11-114.93 0-70.18 12.21-145.46 11.18-11.17 30.51-31.53 19.32-19.31 43.74-41.7 24.4-22.36 50.86-45.77 26.44-23.39 50.86-42.72 24.41-18.31 45.77-30.52 20.34-12.2 32.55-12.2 6.1 0 6.1 6.1 0 29.5-17.29 69.17-17.31 39.67-37.64 83.4-20.35 44.76-37.63 90.53-17.3 46.8-17.29 90.52-0.01 38.66 17.23 69.17 16.21 30.52 43.59 51.88 27.36 21.36 61.82 32.55 33.45 11.19 67.91 11.18 48.64 0 98.32-18.31 49.82-18.3 97.65-46.78 46.77-27.46 91.54-60.02 43.72-32.54 82.39-61.03z"/>
	</g>
</svg>
